<svg xmlns="http://www.w3.org/2000/svg" xmlns:xlink="http://www.w3.org/1999/xlink" width="247.434" height="60.869" viewBox="0 0 247.434 60.869"><defs><clipPath id="a"><rect width="247.434" height="60.869" fill="none"/></clipPath></defs><g clip-path="url(#a)"><path d="M16.059,60.519.51,63.343a.612.612,0,0,0-.51.6V86.641a.613.613,0,0,0,.37.563l15.445.032a1.521,1.521,0,0,0,1.523-1.522V61.588a1.086,1.086,0,0,0-1.28-1.069" transform="translate(0 -31.59)" fill="#ef672e"/><path d="M68.673,31.288a5.979,5.979,0,0,0-1.2-3.59.609.609,0,0,0-.072-.082L53.77,11.266a3.725,3.725,0,0,0-1.651-.82l-.033-.009L45.938,8.5a.6.6,0,0,0-.746.344.589.589,0,0,0,.082.552L56.332,22.882a.434.434,0,0,1-.418.7l-4.921-.949a4.545,4.545,0,0,1-2.44-1.332L34.09,6.092a8.9,8.9,0,0,0-3.668-2.32L19.039.03a.926.926,0,0,0-.916,1.514L36.9,22.68l.187.248a5.99,5.99,0,0,1,.858,3.089l.529,31.219a3.693,3.693,0,0,0,4.1,3.609l9.592-1a1.521,1.521,0,0,0,1.363-1.513L53.524,40.34a2.1,2.1,0,0,1,.9-1.719,1.476,1.476,0,0,1,1.065-.208l2.788.427c2.478.219,2.749,2.59,2.737,4.019l0,14.11a1.52,1.52,0,0,0,1.631,1.516l4.477-.326a1.956,1.956,0,0,0,1.814-1.971Z" transform="translate(-9.338 0)" fill="#5b595d"/><path d="M141.607,36.255a12.634,12.634,0,1,1,25.26,0,12.632,12.632,0,1,1-25.26,0m21.532,0c0-5.139-3.836-9.481-8.939-9.481-5.066,0-8.866,4.343-8.866,9.481,0,5.1,3.8,9.373,8.866,9.373a9.1,9.1,0,0,0,8.939-9.373" transform="translate(-73.937 -12.166)" fill="#ef672e"/><path d="M217.879,49.014c0,5.392-3.8,8.866-8.4,8.866a6.7,6.7,0,0,1-5.863-2.932V65.66h-3.547V40.545h3.547v2.533a6.858,6.858,0,0,1,5.863-2.968c4.56,0,8.4,3.547,8.4,8.9m-3.582.036a5.327,5.327,0,1,0-10.64,0,5.446,5.446,0,0,0,5.392,5.5,5.268,5.268,0,0,0,5.248-5.5" transform="translate(-104.464 -20.943)" fill="#ef672e"/><path d="M258.012,50.425H244.55c.47,2.75,2.5,4.162,5.211,4.162a5.509,5.509,0,0,0,4.777-2.461l2.823,1.411a8.85,8.85,0,0,1-16.466-4.6,8.488,8.488,0,0,1,8.722-8.83c4.813,0,8.468,3.475,8.468,8.794,0,.47-.036.977-.073,1.52m-3.474-2.859a4.611,4.611,0,0,0-4.885-4.162,4.736,4.736,0,0,0-5.066,4.162Z" transform="translate(-125.778 -20.943)" fill="#ef672e"/><path d="M298.364,47.783v9.663h-3.546V48c0-2.75-1.664-4.415-3.836-4.415a4.576,4.576,0,0,0-4.886,4.777v9.083H282.55v-16.9H286.1v2.606c.977-2.1,3.692-3.04,5.5-3.04,4.27,0,6.8,2.859,6.767,7.672" transform="translate(-147.528 -20.943)" fill="#ef672e"/><path d="M339.289,24.208h3.727V49.142h-3.727V38.43H327.781V49.142h-3.727V24.208h3.727V35.064h11.508Z" transform="translate(-169.198 -12.64)" fill="#5b595d"/><path d="M369.95,48.977a8.884,8.884,0,1,1,8.866,8.9,8.634,8.634,0,0,1-8.866-8.9m14.222,0a5.343,5.343,0,1,0-5.356,5.573,5.364,5.364,0,0,0,5.356-5.573" transform="translate(-193.162 -20.943)" fill="#5b595d"/><path d="M424.705,41.02h3.547v16.9h-3.547V55.35c-.977,2.063-3.692,3-5.465,3-4.27,0-6.839-2.859-6.8-7.672V41.02h3.546v9.554c0,2.786,1.664,4.451,3.836,4.451a4.606,4.606,0,0,0,4.886-4.813Z" transform="translate(-215.345 -21.418)" fill="#5b595d"/><path d="M450.987,52.379h3.294c0,1.339,1.194,2.5,3.112,2.5,1.954,0,3.149-.977,3.149-2.244,0-1.122-.9-1.7-2.171-1.99l-2.28-.543c-3.148-.832-4.6-2.461-4.6-4.958,0-2.75,2.5-5.03,6.007-5.03,2.895,0,6.007,1.52,6.007,5.067h-3.4a2.354,2.354,0,0,0-2.533-2.063,2.287,2.287,0,0,0-2.5,2.136c0,1.049.977,1.628,2.027,1.882l2.569.615c3.618.9,4.415,3.149,4.415,4.958,0,3.221-3.185,5.175-6.659,5.175-3.148,0-6.37-1.954-6.442-5.5" transform="translate(-235.473 -20.943)" fill="#5b595d"/><path d="M498.929,50.425H485.466c.47,2.75,2.5,4.162,5.211,4.162a5.509,5.509,0,0,0,4.777-2.461l2.823,1.411a8.85,8.85,0,0,1-16.466-4.6,8.488,8.488,0,0,1,8.722-8.83c4.813,0,8.468,3.475,8.468,8.794,0,.47-.036.977-.072,1.52m-3.475-2.859a4.611,4.611,0,0,0-4.886-4.162,4.735,4.735,0,0,0-5.066,4.162Z" transform="translate(-251.567 -20.943)" fill="#5b595d"/><path d="M205.476,103.263h1.737v8.608h-1.737v-3.5h-3.211v3.5h-1.737v-8.608h1.737v3.548h3.211Z" transform="translate(-104.702 -53.917)" fill="#5b595d"/><path d="M220.419,107.409a4.38,4.38,0,1,1,4.373,4.448,4.405,4.405,0,0,1-4.373-4.448m7.009,0a2.642,2.642,0,1,0-2.636,2.811,2.69,2.69,0,0,0,2.636-2.811" transform="translate(-115.087 -53.753)" fill="#5b595d"/><path d="M253.987,111.871h-1.774l-.625-5.335-2.1,4.36h-1.362L246,106.536l-.625,5.335H243.6l1.062-8.608h1.474l2.661,5.647,2.636-5.647h1.5Z" transform="translate(-127.193 -53.917)" fill="#5b595d"/><path d="M273.1,110.334h3.773v1.537h-5.51v-8.608h5.4V104.8H273.1v2.05h3.211v1.562H273.1Z" transform="translate(-141.687 -53.916)" fill="#5b595d"/><rect width="1.737" height="8.608" transform="translate(142.318 49.346)" fill="#5b595d"/><path d="M313.14,103.263h1.737v8.608h-1.562l-3.123-5.4v5.4h-1.737v-8.608h1.612l3.074,5.335Z" transform="translate(-161.053 -53.917)" fill="#5b595d"/><path d="M327.875,109.209h1.737a1.294,1.294,0,0,0,1.412,1.124c.775,0,1.287-.425,1.287-1.037,0-.475-.35-.812-1.087-1.037l-1.049-.3c-1.887-.5-2.224-1.637-2.224-2.411a2.736,2.736,0,0,1,2.974-2.6,2.622,2.622,0,0,1,2.873,2.624h-1.737a1.068,1.068,0,0,0-1.175-1.087,1.1,1.1,0,0,0-1.187,1.025c0,.213.063.649.962.912l.961.275c1.3.388,2.437,1.049,2.437,2.512,0,1.711-1.462,2.649-3.086,2.649-1.836,0-3.1-1.137-3.1-2.649" transform="translate(-171.193 -53.753)" fill="#5b595d"/><path d="M346.539,108.835v-5.572h1.737v5.46a1.558,1.558,0,1,0,3.111,0v-5.46h1.737v5.572a3.294,3.294,0,0,1-6.584,0" transform="translate(-180.938 -53.917)" fill="#5b595d"/><path d="M371.483,111.871l-2.049-3.087h-.588v3.087H367.11v-8.608h3.436a2.768,2.768,0,0,1,.75,5.447l2.224,3.161Zm-2.636-7.072v2.586h1.387a1.3,1.3,0,1,0,.137-2.586Z" transform="translate(-191.679 -53.917)" fill="#5b595d"/><path d="M390.455,111.871l-.7-2.062h-3.223l-.687,2.062H384l3.211-8.608h1.874l3.2,8.608Zm-3.411-3.573h2.2l-1.1-3.261Z" transform="translate(-200.495 -53.917)" fill="#5b595d"/><path d="M410.691,103.263h1.737v8.608h-1.562l-3.123-5.4v5.4h-1.737v-8.608h1.612l3.074,5.335Z" transform="translate(-211.987 -53.917)" fill="#5b595d"/><path d="M425.348,107.4a4.418,4.418,0,0,1,4.373-4.448,4.279,4.279,0,0,1,3.511,1.787l-1.324.962a2.529,2.529,0,0,0-2.124-1.112,2.82,2.82,0,0,0-.012,5.635,2.534,2.534,0,0,0,2.137-1.112l1.324.962a4.278,4.278,0,0,1-3.511,1.787,4.413,4.413,0,0,1-4.373-4.46" transform="translate(-222.086 -53.753)" fill="#5b595d"/><path d="M449.067,110.334h3.774v1.537h-5.51v-8.608h5.4V104.8h-3.661v2.05h3.211v1.562h-3.211Z" transform="translate(-233.564 -53.916)" fill="#5b595d"/></g></svg>